<svg width="72" height="36" viewBox="0 0 72 36" fill="none" xmlns="http://www.w3.org/2000/svg">
    <path opacity="0.06" d="M26.1522 15.3529C27.9916 16.2941 29.3912 17.5 30.3509 18.9706C31.3106 20.3824 31.7905 21.9706 31.7905 23.7353C31.7905 27.3824 30.151 30.3529 26.872 32.6471C23.5929 34.8824 19.5542 36 14.7556 36C10.3569 36 6.79797 35.0294 4.07878 33.0882C1.35959 31.1471 0 28.6176 0 25.5C0 23.9118 0.399881 22.3824 1.19964 20.9118C1.9994 19.4412 3.47896 17.5588 5.63831 15.2647L19.7941 0H36.5891L26.1522 15.3529ZM60.9418 15.3529C62.7812 16.2941 64.1808 17.5 65.1405 18.9706C66.1003 20.3824 66.5801 21.9706 66.5801 23.7353C66.5801 27.3824 64.9406 30.3529 61.6616 32.6471C58.3826 34.8824 54.3438 36 49.5452 36C45.1465 36 41.5876 35.0294 38.8684 33.0882C36.1492 31.1471 34.7896 28.6176 34.7896 25.5C34.7896 23.9118 35.1895 22.3824 35.9892 20.9118C36.789 19.4412 38.2686 17.5588 40.4279 15.2647L54.5837 0H71.3787L60.9418 15.3529Z" fill="#333333" />
</svg>